<svg width="37" height="49" viewBox="0 0 37 49" fill="none" xmlns="http://www.w3.org/2000/svg">
<path d="M31.9656 16.4482H29.6897V11.8965C29.6897 5.61514 24.5918 0.517212 18.3104 0.517212C12.029 0.517212 6.9311 5.61514 6.9311 11.8965V16.4482H4.65524C2.15179 16.4482 0.103516 18.4965 0.103516 21V43.7586C0.103516 46.262 2.15179 48.3103 4.65524 48.3103H31.9656C34.469 48.3103 36.5173 46.262 36.5173 43.7586V21C36.5173 18.4965 34.469 16.4482 31.9656 16.4482ZM18.3104 36.931C15.807 36.931 13.7587 34.8827 13.7587 32.3793C13.7587 29.8758 15.807 27.8276 18.3104 27.8276C20.8139 27.8276 22.8621 29.8758 22.8621 32.3793C22.8621 34.8827 20.8139 36.931 18.3104 36.931ZM25.3656 16.4482H11.2552V11.8965C11.2552 8.0048 14.4187 4.84135 18.3104 4.84135C22.2021 4.84135 25.3656 8.0048 25.3656 11.8965V16.4482Z" fill="white"/>
</svg>
