<svg width="51" height="46" viewBox="0 0 51 46" fill="none" xmlns="http://www.w3.org/2000/svg">
<path d="M0.275879 45.7931H9.37933V18.4828H0.275879V45.7931ZM50.3448 20.7586C50.3448 18.2552 48.2966 16.2069 45.7931 16.2069H31.4324L33.5945 5.80622L33.6628 5.07795C33.6628 4.14484 33.2759 3.28002 32.6614 2.66553L30.249 0.275879L15.2738 15.2738C14.4317 16.0931 13.9311 17.2311 13.9311 18.4828V41.2414C13.9311 43.7448 15.9793 45.7931 18.4828 45.7931H38.9655C40.8545 45.7931 42.4704 44.6552 43.1531 43.0166L50.0262 26.9717C50.2311 26.4483 50.3448 25.9021 50.3448 25.3104V20.7586Z" fill="white"/>
</svg>
